<svg width="200" height="200" viewBox="0 0 200 200" fill="none" xmlns="http://www.w3.org/2000/svg">
  <rect width="200" height="200" fill="#F3F4F6"/>
  <path d="M100 60C85 60 70 75 70 90C70 105 85 120 100 120C115 120 130 105 130 90C130 75 115 60 100 60ZM100 110C89 110 80 101 80 90C80 79 89 70 100 70C111 70 120 79 120 90C120 101 111 110 100 110Z" fill="#D1D5DB"/>
  <path d="M100 130C70 130 40 145 40 160V170H160V160C160 145 130 130 100 130ZM51.5 160C55 153 75 140 100 140C125 140 145 153 148.5 160H51.5Z" fill="#D1D5DB"/>
</svg>
